<?xml version="1.0" encoding="iso-8859-1"?>
<!-- Generator: Adobe Illustrator 19.0.0, SVG Export Plug-In . SVG Version: 6.00 Build 0)  -->
<svg version="1.1" id="Capa_1" xmlns="http://www.w3.org/2000/svg" xmlns:xlink="http://www.w3.org/1999/xlink" x="0px" y="0px"
	 viewBox="0 0 512.003 512.003" style="enable-background:new 0 0 512.003 512.003;" xml:space="preserve">
<g>
	<g>
		<g>
			<path d="M460.801,102.6V76.801c-0.015-14.132-11.468-25.585-25.6-25.6h-25.798c-90.876-68.267-215.929-68.267-306.804,0H76.801
				c-14.132,0.015-25.585,11.468-25.6,25.6V102.6c-33.387,44.157-51.372,98.044-51.2,153.402c0,141.385,114.615,256,256,256
				s256-114.615,256-256C512.173,200.644,494.188,146.757,460.801,102.6z M256.001,17.068
				c43.417-0.156,86.038,11.654,123.183,34.133H132.818C169.963,28.722,212.584,16.912,256.001,17.068z M68.268,76.801
				c0.003-4.711,3.822-8.53,8.533-8.533h358.4c4.712,0.003,8.53,3.822,8.533,8.533v230.4H68.268V76.801z M68.268,324.268h375.467
				v8.533c-0.003,4.712-3.822,8.53-8.533,8.533H290.135H76.801c-4.711-0.003-8.53-3.822-8.533-8.533V324.268z M290.135,392.535
				c20.266,0.026,37.727,14.282,41.808,34.133H180.06c4.081-19.851,21.542-34.107,41.808-34.133H290.135z M230.401,375.468v-17.067
				h51.2v17.067H230.401z M256.001,494.935C124.103,494.787,17.216,387.899,17.068,256.001
				c-0.156-43.417,11.654-86.038,34.133-123.183v199.983c0.015,14.132,11.468,25.585,25.6,25.6h136.533v17.748
				c-29.353,4.257-51.146,29.392-51.2,59.052c-0.001,2.264,0.897,4.435,2.498,6.035s3.772,2.499,6.035,2.498h170.667
				c2.264,0.001,4.435-0.897,6.035-2.498c1.601-1.601,2.499-3.772,2.498-6.035c-0.055-29.66-21.847-54.794-51.2-59.052v-17.748
				h136.533c14.132-0.015,25.585-11.468,25.6-25.6V132.818c22.48,37.145,34.29,79.766,34.133,123.183
				C494.787,387.899,387.899,494.787,256.001,494.935z"/>
			<path d="M340.437,141.407c-0.377-0.812-0.88-1.559-1.492-2.214c-0.054-0.057-0.089-0.13-0.146-0.186
				c-0.551-0.549-1.176-1.02-1.856-1.398l-76.8-42.667c-0.28-0.108-0.566-0.199-0.856-0.275c-0.545-0.243-1.114-0.425-1.698-0.545
				c-1.05-0.183-2.125-0.183-3.175,0c-0.584,0.12-1.154,0.303-1.698,0.545c-0.29,0.075-0.576,0.167-0.856,0.275l-76.8,42.667
				c-0.68,0.378-1.305,0.849-1.856,1.398c-0.057,0.056-0.092,0.128-0.146,0.185c-0.611,0.655-1.115,1.403-1.493,2.216
				c-0.114,0.236-0.21,0.466-0.302,0.715c-0.373,0.938-0.574,1.935-0.594,2.944v85.333c0.048,0.366,0.121,0.728,0.219,1.084
				c0.055,0.588,0.172,1.169,0.35,1.732c0.427,0.986,0.972,1.915,1.625,2.768c0.415,0.44,0.877,0.833,1.377,1.173
				c0.257,0.252,0.532,0.486,0.821,0.701l76.608,42.56l0.009,0.006l0.014,0.006l0.17,0.094c0.375,0.185,0.764,0.34,1.162,0.465
				c0.924,0.448,1.945,0.658,2.97,0.611l0.004-0.001l0.004,0.001c0.732-0.002,1.46-0.098,2.167-0.286
				c0.266-0.07,0.505-0.209,0.761-0.304c0.416-0.129,0.822-0.291,1.213-0.484l0.116-0.065l0.014-0.007l76.671-42.595
				c0.289-0.215,0.563-0.448,0.821-0.7c0.5-0.34,0.962-0.734,1.377-1.174c0.337-0.408,0.634-0.848,0.885-1.314
				c0.648-0.942,1.025-2.044,1.09-3.185c0.098-0.356,0.171-0.719,0.219-1.085v-85.333c-0.02-1.008-0.221-2.005-0.593-2.942
				C340.649,141.876,340.551,141.645,340.437,141.407z M247.468,258.568l-59.733-33.185v-65.815l59.733,33.185V258.568z
				 M256.001,177.975l-59.225-32.907l59.225-32.907l59.225,32.907L256.001,177.975z M324.268,225.383l-59.733,33.185v-65.815
				l59.733-33.185V225.383z"/>
		</g>
	</g>
</g>
<g>
</g>
<g>
</g>
<g>
</g>
<g>
</g>
<g>
</g>
<g>
</g>
<g>
</g>
<g>
</g>
<g>
</g>
<g>
</g>
<g>
</g>
<g>
</g>
<g>
</g>
<g>
</g>
<g>
</g>
</svg>
