<svg id="Capa_1" enable-background="new 0 0 512 512" height="512" viewBox="0 0 512 512" width="512" xmlns="http://www.w3.org/2000/svg"><path d="m449.224 7.5h-386.448c-30.528 0-55.276 24.748-55.276 55.276v386.448c0 30.528 24.748 55.276 55.276 55.276h386.448c30.528 0 55.276-24.748 55.276-55.276v-386.448c0-30.528-24.748-55.276-55.276-55.276z" fill="#8eafe2"/><path d="m144.993 7.5h-82.217c-30.528 0-55.276 24.748-55.276 55.276v386.448c0 30.528 24.748 55.276 55.276 55.276h137.763c-49.371-91.735-63.79-361.05-55.546-497z" fill="#6a96d7"/><path d="m7.5 118.954h497v316.707h-497z" fill="#383c43"/><ellipse cx="256" cy="355.239" fill="#e8899e" rx="63.344" ry="63.344" transform="matrix(.991 -.132 .132 .991 -44.746 36.989)"/><path d="m56.269 150.904h399.461v34.734h-399.461z" fill="#9aa3b1"/><path d="m-32.099 274.006h218.074v41.336h-218.074z" fill="#c6c6c6" transform="matrix(0 -1 1 0 -217.737 371.612)"/><path d="m7.5 118.954v316.707h497v-316.707zm448.23 274.056c0 5.91-4.791 10.701-10.701 10.701h-378.058c-5.91 0-10.701-4.791-10.701-10.701v-231.405c0-5.91 4.791-10.701 10.701-10.701h378.059c5.91 0 10.701 4.791 10.701 10.701v231.405z" fill="#4e5660"/><path d="m369.545 37.972h-84.525c-3.661 0-6.628 2.968-6.628 6.628v37.255c0 3.661 2.967 6.628 6.628 6.628h84.525c3.661 0 6.628-2.967 6.628-6.628v-37.255c0-3.661-2.967-6.628-6.628-6.628z" fill="#f7ef87"/><ellipse cx="69.31" cy="86.555" fill="#fff" rx="28.296" ry="22.533"/><ellipse cx="222.682" cy="86.555" fill="#fff" rx="28.296" ry="22.533"/><path d="m328.658 199.649h-145.316c-7.739 0-14.012-6.273-14.012-14.012v-34.734h173.34v34.734c0 7.739-6.273 14.012-14.012 14.012z" fill="#c6c6c6"/><path d="m299.939 199.649h-87.878v30.521c0 5.649 4.579 10.228 10.228 10.228h67.422c5.649 0 10.228-4.579 10.228-10.228z" fill="#fff"/><path d="m412.791 83.168h26.458c4.143 0 7.5-3.358 7.5-7.5s-3.357-7.5-7.5-7.5h-26.458c-4.143 0-7.5 3.358-7.5 7.5s3.357 7.5 7.5 7.5zm-199.1-19.091v-9.992c0-4.142-3.358-7.5-7.5-7.5s-7.5 3.358-7.5 7.5v9.992c0 4.142 3.358 7.5 7.5 7.5s7.5-3.358 7.5-7.5zm199.1-5.791h26.458c4.143 0 7.5-3.358 7.5-7.5s-3.357-7.5-7.5-7.5h-26.458c-4.143 0-7.5 3.358-7.5 7.5s3.357 7.5 7.5 7.5zm-334.491-4.202v9.992c0 4.142 3.358 7.5 7.5 7.5s7.5-3.358 7.5-7.5v-9.992c0-4.142-3.358-7.5-7.5-7.5s-7.5 3.358-7.5 7.5zm370.924-54.084h-328.236c-4.142 0-7.5 3.358-7.5 7.5s3.358 7.5 7.5 7.5h328.235c26.344 0 47.777 21.433 47.777 47.776v48.678h-482v-48.678c0-26.343 21.432-47.776 47.776-47.776h20.291c4.142 0 7.5-3.358 7.5-7.5s-3.358-7.5-7.5-7.5h-20.291c-34.615 0-62.776 28.161-62.776 62.776v386.447c0 34.616 28.161 62.777 62.776 62.777h361.346c4.142 0 7.5-3.358 7.5-7.5s-3.358-7.5-7.5-7.5h-361.346c-26.344 0-47.776-21.433-47.776-47.776v-6.063h482v6.063c0 22.876-16.275 42.607-38.698 46.917-4.068.782-6.731 4.713-5.95 8.781.689 3.59 3.832 6.086 7.357 6.086.469 0 .945-.044 1.423-.136 29.475-5.665 50.868-31.592 50.868-61.648v-386.448c0-34.615-28.161-62.776-62.776-62.776zm47.776 428.161h-482v-301.707h482zm-351.004-348.911c8.249 0 16.095-3.573 21.524-9.802 2.722-3.123 2.396-7.86-.726-10.582-3.123-2.722-7.861-2.397-10.582.726-2.58 2.96-6.304 4.658-10.216 4.658-3.913 0-7.637-1.698-10.217-4.658-2.722-3.123-7.46-3.448-10.582-.726-3.123 2.721-3.448 7.459-.727 10.582 5.431 6.229 13.276 9.802 21.526 9.802zm-79.025 331.961h378.059c10.036 0 18.201-8.165 18.201-18.201v-231.405c0-10.036-8.165-18.201-18.201-18.201h-378.059c-10.036 0-18.201 8.165-18.201 18.201v231.405c-.001 10.036 8.165 18.201 18.201 18.201zm226.942-15h-75.827c-11.423-10.57-17.93-25.351-17.93-40.972 0-30.792 25.051-55.843 55.844-55.843 30.792 0 55.844 25.051 55.844 55.843 0 15.621-6.508 30.402-17.931 40.972zm56.257-237.807h94.859c1.765 0 3.201 1.436 3.201 3.201v16.533h-98.06zm-173.34 0h158.34v27.233c0 3.591-2.921 6.512-6.512 6.512h-145.316c-3.591 0-6.512-2.921-6.512-6.512zm115.609 48.745v23.021c0 1.504-1.224 2.728-2.729 2.728h-67.422c-1.504 0-2.728-1.224-2.728-2.728v-23.021zm-109.097 0h21.219v23.021c0 9.775 7.953 17.728 17.728 17.728h67.422c9.775 0 17.729-7.953 17.729-17.728v-23.021h21.219c9.221 0 17.082-5.843 20.136-14.012h99.437v199.873c0 1.765-1.437 3.201-3.201 3.201h-131.268c8.426-11.859 13.081-26.111 13.081-40.972 0-39.063-31.78-70.843-70.844-70.843s-70.844 31.78-70.844 70.843c0 14.861 4.655 29.113 13.081 40.972h-93.132v-203.073h58.1c3.054 8.169 10.916 14.011 20.137 14.011zm-119.573-45.544c0-1.765 1.436-3.201 3.201-3.201h94.859v19.734h-98.06zm0 31.533h26.336v203.073h-23.134c-1.765 0-3.201-1.436-3.201-3.201v-199.872zm158.019 269.442c-4.142 0-7.5 3.358-7.5 7.5s3.358 7.5 7.5 7.5h68.424c4.143 0 7.5-3.358 7.5-7.5s-3.357-7.5-7.5-7.5z"/></svg>