<svg id="Capa_1" enable-background="new 0 0 512 512" height="512" viewBox="0 0 512 512" width="512" xmlns="http://www.w3.org/2000/svg"><g><path d="m491.187 293.463h-470.374c-11.495 0-20.813-9.318-20.813-20.813v-124.878c0-11.495 9.318-20.813 20.813-20.813h470.374c11.495 0 20.813 9.318 20.813 20.813v124.878c0 11.495-9.318 20.813-20.813 20.813z" fill="#4073c8"/><path d="m491.187 126.959h-33.449c11.495 0 20.813 9.318 20.813 20.813v124.878c0 11.495-9.318 20.813-20.813 20.813h33.449c11.495 0 20.813-9.318 20.813-20.813v-124.878c0-11.494-9.318-20.813-20.813-20.813z" fill="#30579d"/><path d="m450.602 512h-389.204c-22.989 0-41.626-18.637-41.626-41.626v-176.911h472.455v176.911c.001 22.989-18.636 41.626-41.625 41.626z" fill="#30579d"/><path d="m19.772 293.463h472.455v24.976h-472.455z" fill="#26457d"/><path d="m416.26 355.902c17.242 0 31.22-13.977 31.22-31.219v-31.22h-62.439v31.22c0 17.242 13.977 31.219 31.219 31.219z" fill="#f6e266"/><path d="m385.041 293.463h62.439v24.976h-62.439z" fill="#f1d333"/><path d="m120.715 126.959v-22.999c0-5.69 4.612-10.302 10.302-10.302h62.648c5.69 0 10.302 4.612 10.302 10.302v22.999z" fill="#9dc6fb"/><path d="m391.285 126.959v-22.999c0-5.69-4.612-10.302-10.302-10.302h-62.648c-5.69 0-10.302 4.612-10.302 10.302v22.999z" fill="#9dc6fb"/><path d="m135.285 41.626v52.033h54.114v-29.545c0-5.523 4.477-10 10-10h113.203c5.523 0 10 4.477 10 10v29.545h54.114v-52.033c-.001-22.989-18.637-41.626-41.627-41.626h-158.178c-22.99 0-41.626 18.637-41.626 41.626z" fill="#f6e266"/><path d="m322.602 70.764h54.114v22.894h-54.114z" fill="#f1d333"/><path d="m135.285 70.764h54.114v22.894h-54.114z" fill="#f1d333"/><path d="m95.74 355.902c-17.242 0-31.22-13.977-31.22-31.219v-31.22h62.439v31.22c0 17.242-13.977 31.219-31.219 31.219z" fill="#f6e266"/><path d="m64.52 293.463h62.439v24.976h-62.439z" fill="#f1d333"/></g></svg>